HIERARCHY
ROOT Hips
{
	OFFSET -3.958830 18.904000 13.208200
	CHANNELS 6 Xposition Yposition Zposition Zrotation Yrotation Xrotation 
	JOINT LHipJoint
	{
		OFFSET 0.000000 0.000000 0.000000
		CHANNELS 3 Zrotation Yrotation Xrotation
		JOINT LeftUpLeg
		{
			OFFSET 1.800000 -1.400000 0.085000
			CHANNELS 3 Zrotation Yrotation Xrotation
			JOINT LeftLeg
			{
				OFFSET 2.215000 -6.000000 0.000000
				CHANNELS 3 Zrotation Yrotation Xrotation
				JOINT LeftFoot
				{
					OFFSET 2.500000 -6.900000 0.000000
					CHANNELS 3 Zrotation Yrotation Xrotation
					JOINT LeftToeBase
					{
						OFFSET 0.200000 -0.500000 1.950000
						CHANNELS 3 Zrotation Yrotation Xrotation
						End Site
						{
							OFFSET 0.000000 0.000000 0.000000
						}
					}
				}
			}
		}
	}
	JOINT RHipJoint
	{
		OFFSET 0.000000 0.000000 0.000000
		CHANNELS 3 Zrotation Yrotation Xrotation
		JOINT RightUpLeg
		{
			OFFSET -1.800000 -1.400000 0.085000
			CHANNELS 3 Zrotation Yrotation Xrotation
			JOINT RightLeg
			{
				OFFSET -2.215000 -6.000000 0.000000
				CHANNELS 3 Zrotation Yrotation Xrotation
				JOINT RightFoot
				{
					OFFSET -2.500000 -6.900000 0.000000
					CHANNELS 3 Zrotation Yrotation Xrotation
					JOINT RightToeBase
					{
						OFFSET -0.200000 -0.500000 1.950000
						CHANNELS 3 Zrotation Yrotation Xrotation
						End Site
						{
							OFFSET 0.000000 0.000000 0.000000
						}
					}
				}
			}
		}
	}
	JOINT LowerBack
	{
		OFFSET 0.000000 0.000000 0.000000
		CHANNELS 3 Zrotation Yrotation Xrotation
		JOINT Spine
		{
			OFFSET -0.087000 1.940000 -0.288900
			CHANNELS 3 Zrotation Yrotation Xrotation
			JOINT Spine1
			{
				OFFSET 0.000000 1.950000 0.060000
				CHANNELS 3 Zrotation Yrotation Xrotation
				JOINT Neck
				{
					OFFSET 0.000000 0.000000 0.000000
					CHANNELS 3 Zrotation Yrotation Xrotation
					JOINT Neck1
					{
						OFFSET 0.000000 1.600000 0.340000
						CHANNELS 3 Zrotation Yrotation Xrotation
						JOINT Head
						{
							OFFSET 0.000000 1.667000 -0.240000
							CHANNELS 3 Zrotation Yrotation Xrotation
							End Site
							{
								OFFSET 0.000000 0.000000 0.000000
							}
						}
					}
				}
				JOINT LeftShoulder
				{
					OFFSET 0.000000 0.000000 0.000000
					CHANNELS 3 Zrotation Yrotation Xrotation
					JOINT LeftArm
					{
						OFFSET 2.700000 1.550000 -0.730000
						CHANNELS 3 Zrotation Yrotation Xrotation
						JOINT LeftForeArm
						{
							OFFSET 5.450000 0.000000 0.000000
							CHANNELS 3 Zrotation Yrotation Xrotation
							JOINT LeftHand
							{
								OFFSET 3.450000 0.000000 0.000000
								CHANNELS 3 Zrotation Yrotation Xrotation
								JOINT LeftHandIndex1
								{
									OFFSET 0.750000 0.000000 0.000000
									CHANNELS 3 Zrotation Yrotation Xrotation
									End Site
									{
										OFFSET 0.000000 0.000000 0.000000
									}
								}
							}
						}
					}
				}
				JOINT RightShoulder
				{
					OFFSET 0.000000 0.000000 0.000000
					CHANNELS 3 Zrotation Yrotation Xrotation
					JOINT RightArm
					{
						OFFSET -2.700000 1.550000 -0.730000
						CHANNELS 3 Zrotation Yrotation Xrotation
						JOINT RightForeArm
						{
							OFFSET -5.450000 0.000000 0.000000
							CHANNELS 3 Zrotation Yrotation Xrotation
							JOINT RightHand
							{
								OFFSET -3.450000 0.000000 0.000000
								CHANNELS 3 Zrotation Yrotation Xrotation
								JOINT RightHandIndex1
								{
									OFFSET -0.750000 0.000000 0.000000
									CHANNELS 3 Zrotation Yrotation Xrotation
									End Site
									{
										OFFSET 0.000000 0.000000 0.000000
									}
								}
							}
						}
					}
				}
			}
		}
	}
}
MOTION
Frames: 7
Frame Time: 0.016667
4.757400 15.945040 -6.547930 82.136658 77.192636 78.213537 -14.759687 12.185706 4.785125 -6.316152 -11.235716 -31.968010 17.526421 -0.665670 60.224374 0.698134 9.578509 1.181810 0.569710 0.406030 0.427010 18.771447 -10.825741 2.576393 -18.146799 1.570680 -33.086433 -3.392691 -5.942509 37.449028 -0.337004 -4.990892 2.347645 0.384220 -0.059680 0.146200 -4.569344 1.099798 -8.059564 22.849586 -6.404325 36.733389 -11.846542 -1.502796 5.856369 1.330902 -4.040079 -5.980687 -6.900585 -8.760190 27.400129 -2.092320 -10.184000 -18.891090 -15.183700 -2.645729 -0.936481 7.359882 12.408123 -3.868192 93.175294 -57.495785 -52.442145 -3.588570 2.155396 0.317760 -0.055910 0.091490 0.125240 11.415232 7.104805 4.513288 14.139004 13.565992 -2.416322 -122.497211 71.445931 -115.090228 2.334768 -1.073173 -0.064680 0.192020 -0.130740 -0.152950 
4.731020 15.851390 -6.481950 89.325279 75.487296 85.761254 -14.901210 11.759866 5.196120 -7.138800 -13.183537 -34.338630 17.629127 0.040312 70.885181 1.202493 11.483291 0.622048 0.572790 0.423070 0.416250 18.737757 -10.642376 2.389855 -18.509326 1.139079 -33.828250 -5.509235 -5.419460 38.192645 -0.369510 -5.043122 2.331412 0.376920 -0.076510 0.144000 -4.588682 1.021440 -8.298979 22.169704 -6.405522 37.975089 -11.930946 -1.425368 4.638606 0.719938 -4.695071 -6.063981 -7.984214 -8.767594 26.906272 -1.381290 -10.293500 -19.680160 -15.465133 -1.997811 -1.195812 8.333685 13.102481 -3.831818 97.338576 -56.787677 -56.118487 -3.607277 2.175595 0.326390 -0.077910 0.112700 0.128270 12.771269 6.946146 4.960969 17.553864 11.725896 -2.647216 -120.699592 73.331049 -115.638173 2.407394 -0.897303 -0.046560 0.186170 -0.137590 -0.141900 
4.729880 15.738680 -6.418350 97.709936 73.777847 94.509974 -15.028564 11.438342 5.453214 -7.743675 -14.726826 -35.841974 17.810607 1.004822 80.534994 1.677663 13.119630 0.198125 0.574800 0.433480 0.404430 18.712368 -10.330769 2.369815 -20.359870 0.741032 -34.991088 -5.050270 -6.396605 41.012133 -0.459810 -5.586850 2.142721 0.367500 -0.079830 0.135000 -4.619519 0.892792 -8.546908 21.850146 -6.475900 38.446724 -12.028596 -1.448033 3.175800 0.165640 -5.390200 -5.999474 -9.311028 -8.461225 26.852809 -0.400940 -10.306520 -19.846620 -16.426840 -1.033664 -1.735146 9.053390 12.959162 -3.860226 101.955534 -55.624285 -60.067633 -3.646405 2.246933 0.330290 -0.096700 0.124810 0.140610 14.727725 6.169053 5.465738 20.920088 9.423423 -2.011903 -114.517643 74.560083 -109.798096 2.582886 0.120650 -0.035050 0.187560 -0.149640 -0.127070 
4.747780 15.637220 -6.365780 107.019400 72.309152 103.654884 -15.137603 11.306591 5.548769 -8.549186 -15.669305 -35.376405 18.760938 1.167004 88.248709 2.043216 14.326008 -0.088086 0.584930 0.446610 0.403570 18.660731 -10.117373 2.366838 -22.532202 0.138428 -34.966587 -3.205409 -8.034326 43.210533 -0.552309 -6.145054 1.943479 0.367180 -0.089160 0.125360 -4.683188 0.790972 -8.683779 22.679308 -6.663959 37.940497 -11.779975 -1.623584 0.471276 -0.313321 -6.448440 -4.354432 -11.475732 -7.867759 28.208054 -0.001520 -10.413460 -20.000340 -17.334267 -0.488442 -1.520063 9.254836 11.852711 -3.448502 104.704556 -55.446710 -62.471682 -3.674190 2.236527 0.346160 -0.118940 0.139280 0.148410 16.355237 6.868423 2.348158 24.358336 3.663241 -14.428409 133.007173 86.374448 131.325395 1.618180 -0.388989 -0.030690 0.196570 -0.156840 -0.120910 
4.767690 15.535660 -6.325870 114.919470 70.950778 111.278208 -15.224713 11.296445 5.492978 -9.215285 -15.967131 -33.828874 19.549505 1.507814 94.719070 2.326678 15.246159 -0.288577 0.598750 0.459610 0.408620 18.609586 -9.875488 2.456614 -24.611563 -0.227044 -34.716738 -0.155421 -10.199631 45.070036 -0.655296 -6.763006 1.728767 0.374350 -0.094910 0.114890 -4.682888 0.292521 -8.750295 23.459598 -7.137902 37.122876 -10.729748 -1.833414 -0.374963 -1.017151 -7.798958 -4.179486 -14.457485 -6.815809 29.147941 -0.151370 -10.347570 -19.826570 -18.568709 0.901000 -2.609464 8.902931 10.000322 -3.659889 104.755461 -54.136605 -60.944198 -3.665104 2.284647 0.358160 -0.134630 0.146410 0.156460 18.802554 5.872561 3.104397 24.588623 3.045731 -11.618438 -6.460646 88.103909 -9.235137 1.895211 -1.761246 -0.032430 0.208700 -0.163550 -0.118780 
4.758090 15.447760 -6.287140 120.329341 70.076345 117.058358 -15.318833 11.293189 5.355936 -8.965119 -15.718877 -33.140407 18.522104 3.758317 98.317244 2.488083 15.734311 -0.384397 0.600200 0.469780 0.403610 18.551589 -9.483738 2.779069 -26.373318 0.018866 -36.013580 3.276418 -12.638838 47.381803 -0.789538 -7.519008 1.486222 0.376630 -0.086150 0.105900 -4.721755 0.005558 -8.845661 24.480284 -7.209120 36.364792 -10.211910 -1.710475 -1.915065 -1.344943 -8.374061 -3.726088 -15.798516 -5.442582 29.732694 -0.174170 -9.462380 -19.048930 -19.887046 2.286573 -3.203583 8.048840 9.182497 -3.758842 108.649957 -52.455354 -63.473471 -3.718415 2.377646 0.346450 -0.130300 0.143040 0.166620 20.596170 4.751074 2.801026 25.525211 2.777139 -10.874734 3.927514 81.431342 0.611322 1.969696 -1.863362 -0.030990 0.212290 -0.173210 -0.111290 
4.756350 15.364780 -6.249320 126.448095 69.055020 123.424910 -15.414702 11.298515 5.239136 -8.822688 -15.474894 -32.356797 17.859522 5.308061 100.669325 2.603475 16.041838 -0.447411 0.602720 0.486610 0.401970 18.479688 -9.174071 3.053533 -27.669695 0.286657 -36.867349 6.141459 -14.855754 49.322788 -0.939632 -8.204108 1.276999 0.374860 -0.089620 0.111560 -4.712903 -0.366891 -8.928703 25.277146 -6.885305 35.268180 -9.164989 -1.207621 -3.122112 -1.420116 -8.491325 -3.471548 -16.419258 -3.920732 30.822972 -0.568770 -7.905200 -18.394990 -20.743077 3.523340 -3.410142 5.726186 7.644702 -3.800210 114.647826 -50.529435 -68.903900 -3.748563 2.513332 0.341640 -0.122840 0.155570 0.172440 21.513761 3.685449 2.285425 26.719961 2.971548 -10.410978 6.302905 72.867341 2.939191 2.000129 -1.834802 -0.019120 0.202060 -0.182290 -0.109160 
